<mxfile host="app.diagrams.net" modified="2024-05-08T22:35:06.489Z" agent="Mozilla/5.0 (Windows NT 10.0; Win64; x64) AppleWebKit/537.36 (KHTML, like Gecko) Chrome/124.0.0.0 Safari/537.36" etag="tJJmIwjJW2ZNMs_ve5f4" version="24.3.1" type="device">
  <diagram id="C5RBs43oDa-KdzZeNtuy" name="Page-1">
    <mxGraphModel dx="1050" dy="557" grid="1" gridSize="10" guides="1" tooltips="1" connect="1" arrows="1" fold="1" page="1" pageScale="1" pageWidth="827" pageHeight="1169" math="0" shadow="0">
      <root>
        <mxCell id="WIyWlLk6GJQsqaUBKTNV-0" />
        <mxCell id="WIyWlLk6GJQsqaUBKTNV-1" parent="WIyWlLk6GJQsqaUBKTNV-0" />
        <mxCell id="rdYn9kZZrJdJcp-ZtjhP-2" style="edgeStyle=orthogonalEdgeStyle;rounded=0;orthogonalLoop=1;jettySize=auto;html=1;exitX=0.5;exitY=1;exitDx=0;exitDy=0;entryX=0.5;entryY=0;entryDx=0;entryDy=0;" parent="WIyWlLk6GJQsqaUBKTNV-1" source="rdYn9kZZrJdJcp-ZtjhP-0" target="rdYn9kZZrJdJcp-ZtjhP-1" edge="1">
          <mxGeometry relative="1" as="geometry" />
        </mxCell>
        <mxCell id="rdYn9kZZrJdJcp-ZtjhP-0" value="Inicio" style="ellipse;whiteSpace=wrap;html=1;" parent="WIyWlLk6GJQsqaUBKTNV-1" vertex="1">
          <mxGeometry x="330" width="80" height="50" as="geometry" />
        </mxCell>
        <mxCell id="rdYn9kZZrJdJcp-ZtjhP-4" style="edgeStyle=orthogonalEdgeStyle;rounded=0;orthogonalLoop=1;jettySize=auto;html=1;exitX=1;exitY=0.5;exitDx=0;exitDy=0;" parent="WIyWlLk6GJQsqaUBKTNV-1" source="rdYn9kZZrJdJcp-ZtjhP-1" edge="1">
          <mxGeometry relative="1" as="geometry">
            <mxPoint x="530" y="120" as="targetPoint" />
          </mxGeometry>
        </mxCell>
        <mxCell id="rdYn9kZZrJdJcp-ZtjhP-7" style="edgeStyle=orthogonalEdgeStyle;rounded=0;orthogonalLoop=1;jettySize=auto;html=1;exitX=0.5;exitY=1;exitDx=0;exitDy=0;entryX=0.5;entryY=0;entryDx=0;entryDy=0;" parent="WIyWlLk6GJQsqaUBKTNV-1" source="rdYn9kZZrJdJcp-ZtjhP-1" target="rdYn9kZZrJdJcp-ZtjhP-6" edge="1">
          <mxGeometry relative="1" as="geometry" />
        </mxCell>
        <mxCell id="rdYn9kZZrJdJcp-ZtjhP-1" value="n&amp;lt;a &amp;amp;&amp;amp; n&amp;lt;b" style="rhombus;whiteSpace=wrap;html=1;" parent="WIyWlLk6GJQsqaUBKTNV-1" vertex="1">
          <mxGeometry x="330" y="80" width="80" height="80" as="geometry" />
        </mxCell>
        <mxCell id="rdYn9kZZrJdJcp-ZtjhP-5" value="Si" style="text;html=1;align=center;verticalAlign=middle;resizable=0;points=[];autosize=1;strokeColor=none;fillColor=none;" parent="WIyWlLk6GJQsqaUBKTNV-1" vertex="1">
          <mxGeometry x="415" y="98" width="30" height="30" as="geometry" />
        </mxCell>
        <mxCell id="rdYn9kZZrJdJcp-ZtjhP-11" style="edgeStyle=orthogonalEdgeStyle;rounded=0;orthogonalLoop=1;jettySize=auto;html=1;exitX=0;exitY=0.5;exitDx=0;exitDy=0;" parent="WIyWlLk6GJQsqaUBKTNV-1" source="rdYn9kZZrJdJcp-ZtjhP-6" edge="1">
          <mxGeometry relative="1" as="geometry">
            <mxPoint x="280" y="240" as="targetPoint" />
          </mxGeometry>
        </mxCell>
        <mxCell id="rdYn9kZZrJdJcp-ZtjhP-16" style="edgeStyle=orthogonalEdgeStyle;rounded=0;orthogonalLoop=1;jettySize=auto;html=1;exitX=0.5;exitY=1;exitDx=0;exitDy=0;" parent="WIyWlLk6GJQsqaUBKTNV-1" source="rdYn9kZZrJdJcp-ZtjhP-6" target="rdYn9kZZrJdJcp-ZtjhP-15" edge="1">
          <mxGeometry relative="1" as="geometry" />
        </mxCell>
        <mxCell id="rdYn9kZZrJdJcp-ZtjhP-6" value="n&amp;gt;a &amp;amp;&amp;amp; n&amp;lt;b" style="rhombus;whiteSpace=wrap;html=1;" parent="WIyWlLk6GJQsqaUBKTNV-1" vertex="1">
          <mxGeometry x="330" y="200" width="80" height="80" as="geometry" />
        </mxCell>
        <mxCell id="rdYn9kZZrJdJcp-ZtjhP-24" style="edgeStyle=orthogonalEdgeStyle;rounded=0;orthogonalLoop=1;jettySize=auto;html=1;exitX=0.5;exitY=1;exitDx=0;exitDy=0;entryX=0;entryY=0.5;entryDx=0;entryDy=0;" parent="WIyWlLk6GJQsqaUBKTNV-1" target="rdYn9kZZrJdJcp-ZtjhP-23" edge="1">
          <mxGeometry relative="1" as="geometry">
            <mxPoint x="120" y="390" as="sourcePoint" />
          </mxGeometry>
        </mxCell>
        <mxCell id="rdYn9kZZrJdJcp-ZtjhP-14" value="Si" style="text;html=1;align=center;verticalAlign=middle;resizable=0;points=[];autosize=1;strokeColor=none;fillColor=none;" parent="WIyWlLk6GJQsqaUBKTNV-1" vertex="1">
          <mxGeometry x="300" y="208" width="30" height="30" as="geometry" />
        </mxCell>
        <mxCell id="rdYn9kZZrJdJcp-ZtjhP-21" style="edgeStyle=orthogonalEdgeStyle;rounded=0;orthogonalLoop=1;jettySize=auto;html=1;exitX=1;exitY=0.5;exitDx=0;exitDy=0;" parent="WIyWlLk6GJQsqaUBKTNV-1" source="rdYn9kZZrJdJcp-ZtjhP-15" edge="1">
          <mxGeometry relative="1" as="geometry">
            <mxPoint x="480" y="366" as="targetPoint" />
          </mxGeometry>
        </mxCell>
        <mxCell id="rdYn9kZZrJdJcp-ZtjhP-25" style="edgeStyle=orthogonalEdgeStyle;rounded=0;orthogonalLoop=1;jettySize=auto;html=1;exitX=0;exitY=0.5;exitDx=0;exitDy=0;entryX=0.5;entryY=0;entryDx=0;entryDy=0;" parent="WIyWlLk6GJQsqaUBKTNV-1" source="rdYn9kZZrJdJcp-ZtjhP-15" target="rdYn9kZZrJdJcp-ZtjhP-23" edge="1">
          <mxGeometry relative="1" as="geometry" />
        </mxCell>
        <mxCell id="rdYn9kZZrJdJcp-ZtjhP-15" value="n&amp;gt;a &amp;amp;&amp;amp; n&amp;gt;b" style="rhombus;whiteSpace=wrap;html=1;" parent="WIyWlLk6GJQsqaUBKTNV-1" vertex="1">
          <mxGeometry x="330" y="320" width="80" height="80" as="geometry" />
        </mxCell>
        <mxCell id="rdYn9kZZrJdJcp-ZtjhP-17" value="No" style="text;html=1;align=center;verticalAlign=middle;resizable=0;points=[];autosize=1;strokeColor=none;fillColor=none;" parent="WIyWlLk6GJQsqaUBKTNV-1" vertex="1">
          <mxGeometry x="360" y="158" width="40" height="30" as="geometry" />
        </mxCell>
        <mxCell id="rdYn9kZZrJdJcp-ZtjhP-18" value="No" style="text;html=1;align=center;verticalAlign=middle;resizable=0;points=[];autosize=1;strokeColor=none;fillColor=none;" parent="WIyWlLk6GJQsqaUBKTNV-1" vertex="1">
          <mxGeometry x="360" y="278" width="40" height="30" as="geometry" />
        </mxCell>
        <mxCell id="rdYn9kZZrJdJcp-ZtjhP-29" style="edgeStyle=orthogonalEdgeStyle;rounded=0;orthogonalLoop=1;jettySize=auto;html=1;exitX=0;exitY=0.5;exitDx=0;exitDy=0;entryX=1;entryY=0.5;entryDx=0;entryDy=0;" parent="WIyWlLk6GJQsqaUBKTNV-1" target="rdYn9kZZrJdJcp-ZtjhP-23" edge="1">
          <mxGeometry relative="1" as="geometry">
            <mxPoint x="490" y="480" as="sourcePoint" />
          </mxGeometry>
        </mxCell>
        <mxCell id="rdYn9kZZrJdJcp-ZtjhP-23" value="Fin" style="ellipse;whiteSpace=wrap;html=1;" parent="WIyWlLk6GJQsqaUBKTNV-1" vertex="1">
          <mxGeometry x="245" y="460" width="85" height="60" as="geometry" />
        </mxCell>
        <mxCell id="rdYn9kZZrJdJcp-ZtjhP-26" value="No" style="text;html=1;align=center;verticalAlign=middle;resizable=0;points=[];autosize=1;strokeColor=none;fillColor=none;" parent="WIyWlLk6GJQsqaUBKTNV-1" vertex="1">
          <mxGeometry x="245" y="382" width="40" height="30" as="geometry" />
        </mxCell>
        <mxCell id="rdYn9kZZrJdJcp-ZtjhP-27" value="Si" style="text;html=1;align=center;verticalAlign=middle;resizable=0;points=[];autosize=1;strokeColor=none;fillColor=none;" parent="WIyWlLk6GJQsqaUBKTNV-1" vertex="1">
          <mxGeometry x="425" y="330" width="30" height="30" as="geometry" />
        </mxCell>
        <mxCell id="zDvG2FGBaBJcZf3zxLFx-1" style="edgeStyle=orthogonalEdgeStyle;rounded=0;orthogonalLoop=1;jettySize=auto;html=1;exitX=1;exitY=0.5;exitDx=0;exitDy=0;entryX=0.5;entryY=1;entryDx=0;entryDy=0;" edge="1" parent="WIyWlLk6GJQsqaUBKTNV-1" source="zDvG2FGBaBJcZf3zxLFx-0" target="rdYn9kZZrJdJcp-ZtjhP-23">
          <mxGeometry relative="1" as="geometry">
            <Array as="points">
              <mxPoint x="700" y="120" />
              <mxPoint x="700" y="540" />
              <mxPoint x="288" y="540" />
            </Array>
          </mxGeometry>
        </mxCell>
        <mxCell id="zDvG2FGBaBJcZf3zxLFx-0" value="Imprimir n" style="shape=parallelogram;perimeter=parallelogramPerimeter;whiteSpace=wrap;html=1;fixedSize=1;" vertex="1" parent="WIyWlLk6GJQsqaUBKTNV-1">
          <mxGeometry x="520" y="90" width="120" height="60" as="geometry" />
        </mxCell>
        <mxCell id="zDvG2FGBaBJcZf3zxLFx-3" style="edgeStyle=orthogonalEdgeStyle;rounded=0;orthogonalLoop=1;jettySize=auto;html=1;exitX=0.5;exitY=1;exitDx=0;exitDy=0;entryX=0.5;entryY=0;entryDx=0;entryDy=0;" edge="1" parent="WIyWlLk6GJQsqaUBKTNV-1" source="zDvG2FGBaBJcZf3zxLFx-2">
          <mxGeometry relative="1" as="geometry">
            <mxPoint x="120" y="330" as="targetPoint" />
          </mxGeometry>
        </mxCell>
        <mxCell id="zDvG2FGBaBJcZf3zxLFx-2" value="&lt;div&gt;&amp;nbsp;Crear variable da&lt;/div&gt;&lt;div&gt;&lt;span style=&quot;background-color: initial;&quot;&gt;&lt;br&gt;&lt;/span&gt;&lt;/div&gt;&lt;div&gt;&lt;span style=&quot;background-color: initial;&quot;&gt;Calcular&amp;nbsp; x = x / 100&lt;/span&gt;&lt;br&gt;&lt;/div&gt;&lt;div&gt;&lt;br&gt;&lt;/div&gt;&lt;div&gt;&amp;nbsp;Calcular da = n - (n*x)&lt;/div&gt;" style="rounded=0;whiteSpace=wrap;html=1;" vertex="1" parent="WIyWlLk6GJQsqaUBKTNV-1">
          <mxGeometry x="90" y="178" width="190" height="102" as="geometry" />
        </mxCell>
        <mxCell id="zDvG2FGBaBJcZf3zxLFx-4" value="Imprimir da" style="shape=parallelogram;perimeter=parallelogramPerimeter;whiteSpace=wrap;html=1;fixedSize=1;" vertex="1" parent="WIyWlLk6GJQsqaUBKTNV-1">
          <mxGeometry x="60" y="330" width="120" height="60" as="geometry" />
        </mxCell>
        <mxCell id="zDvG2FGBaBJcZf3zxLFx-7" value="" style="edgeStyle=orthogonalEdgeStyle;rounded=0;orthogonalLoop=1;jettySize=auto;html=1;" edge="1" parent="WIyWlLk6GJQsqaUBKTNV-1" source="zDvG2FGBaBJcZf3zxLFx-5" target="zDvG2FGBaBJcZf3zxLFx-6">
          <mxGeometry relative="1" as="geometry" />
        </mxCell>
        <mxCell id="zDvG2FGBaBJcZf3zxLFx-5" value="&lt;div&gt;Crear variable db&lt;/div&gt;&lt;div&gt;&lt;br&gt;&lt;/div&gt;&lt;div&gt;&amp;nbsp;y = y /100&lt;/div&gt;&lt;div&gt;&lt;br&gt;&lt;/div&gt;&lt;div&gt;db = n - (n*y)&lt;/div&gt;" style="rounded=0;whiteSpace=wrap;html=1;" vertex="1" parent="WIyWlLk6GJQsqaUBKTNV-1">
          <mxGeometry x="480" y="317" width="150" height="95" as="geometry" />
        </mxCell>
        <mxCell id="zDvG2FGBaBJcZf3zxLFx-6" value="Imprimir db" style="shape=parallelogram;perimeter=parallelogramPerimeter;whiteSpace=wrap;html=1;fixedSize=1;" vertex="1" parent="WIyWlLk6GJQsqaUBKTNV-1">
          <mxGeometry x="480" y="460" width="120" height="60" as="geometry" />
        </mxCell>
      </root>
    </mxGraphModel>
  </diagram>
</mxfile>
